<svg width="81" height="42" viewBox="0 0 81 42" fill="none" xmlns="http://www.w3.org/2000/svg">
<path d="M2.964 37.172C4.18 37.172 4.788 36.756 4.788 35.924C4.788 35.668 4.732 35.452 4.62 35.276C4.516 35.092 4.372 34.936 4.188 34.808C4.004 34.672 3.792 34.556 3.552 34.46C3.32 34.364 3.072 34.268 2.808 34.172C2.504 34.068 2.216 33.952 1.944 33.824C1.672 33.688 1.436 33.532 1.236 33.356C1.036 33.172 0.876 32.956 0.756 32.708C0.644 32.46 0.588 32.16 0.588 31.808C0.588 31.08 0.836 30.512 1.332 30.104C1.828 29.696 2.512 29.492 3.384 29.492C3.888 29.492 4.344 29.548 4.752 29.66C5.168 29.764 5.472 29.88 5.664 30.008L5.292 30.956C5.124 30.852 4.872 30.752 4.536 30.656C4.208 30.552 3.824 30.5 3.384 30.5C3.16 30.5 2.952 30.524 2.76 30.572C2.568 30.62 2.4 30.692 2.256 30.788C2.112 30.884 1.996 31.008 1.908 31.16C1.828 31.304 1.788 31.476 1.788 31.676C1.788 31.9 1.832 32.088 1.92 32.24C2.008 32.392 2.132 32.528 2.292 32.648C2.452 32.76 2.636 32.864 2.844 32.96C3.06 33.056 3.296 33.152 3.552 33.248C3.912 33.392 4.24 33.536 4.536 33.68C4.84 33.824 5.1 33.996 5.316 34.196C5.54 34.396 5.712 34.636 5.832 34.916C5.952 35.188 6.012 35.52 6.012 35.912C6.012 36.64 5.744 37.2 5.208 37.592C4.68 37.984 3.932 38.18 2.964 38.18C2.636 38.18 2.332 38.156 2.052 38.108C1.78 38.068 1.536 38.02 1.32 37.964C1.104 37.9 0.916 37.836 0.756 37.772C0.604 37.7 0.484 37.64 0.396 37.592L0.744 36.632C0.928 36.736 1.208 36.852 1.584 36.98C1.96 37.108 2.42 37.172 2.964 37.172ZM20.5347 29.684V30.692H17.9187V38H16.7547V30.692H14.1387V29.684H20.5347ZM32.4199 38.18C31.8759 38.18 31.4039 38.096 31.0039 37.928C30.6039 37.76 30.2759 37.532 30.0199 37.244C29.7639 36.948 29.5719 36.6 29.4439 36.2C29.3239 35.8 29.2639 35.368 29.2639 34.904V29.684H30.4279V34.772C30.4279 35.604 30.6119 36.208 30.9799 36.584C31.3479 36.96 31.8279 37.148 32.4199 37.148C32.7159 37.148 32.9839 37.104 33.2239 37.016C33.4719 36.92 33.6839 36.776 33.8599 36.584C34.0359 36.392 34.1719 36.148 34.2679 35.852C34.3639 35.548 34.4119 35.188 34.4119 34.772V29.684H35.5759V34.904C35.5759 35.368 35.5119 35.8 35.3839 36.2C35.2639 36.6 35.0719 36.948 34.8079 37.244C34.5519 37.532 34.2239 37.76 33.8239 37.928C33.4319 38.096 32.9639 38.18 32.4199 38.18ZM51.9736 33.836C51.9736 34.556 51.8616 35.184 51.6376 35.72C51.4136 36.248 51.0976 36.688 50.6896 37.04C50.2816 37.384 49.7936 37.644 49.2256 37.82C48.6576 37.988 48.0336 38.072 47.3536 38.072C47.0176 38.072 46.6456 38.056 46.2376 38.024C45.8376 38 45.4736 37.948 45.1456 37.868V29.804C45.4736 29.724 45.8376 29.672 46.2376 29.648C46.6456 29.616 47.0176 29.6 47.3536 29.6C48.0336 29.6 48.6576 29.688 49.2256 29.864C49.7936 30.032 50.2816 30.292 50.6896 30.644C51.0976 30.988 51.4136 31.428 51.6376 31.964C51.8616 32.492 51.9736 33.116 51.9736 33.836ZM47.4496 37.052C48.5536 37.052 49.3776 36.772 49.9216 36.212C50.4656 35.644 50.7376 34.852 50.7376 33.836C50.7376 32.82 50.4656 32.032 49.9216 31.472C49.3776 30.904 48.5536 30.62 47.4496 30.62C47.1216 30.62 46.8656 30.624 46.6816 30.632C46.5056 30.64 46.3816 30.648 46.3096 30.656V37.016C46.3816 37.024 46.5056 37.032 46.6816 37.04C46.8656 37.048 47.1216 37.052 47.4496 37.052ZM61.2603 29.684H62.4243V38H61.2603V29.684ZM71.7069 33.836C71.7069 33.124 71.8109 32.496 72.0189 31.952C72.2349 31.408 72.5229 30.956 72.8829 30.596C73.2509 30.228 73.6749 29.952 74.1549 29.768C74.6429 29.584 75.1589 29.492 75.7029 29.492C76.2389 29.492 76.7429 29.584 77.2149 29.768C77.6949 29.952 78.1149 30.228 78.4749 30.596C78.8349 30.956 79.1189 31.408 79.3269 31.952C79.5429 32.496 79.6509 33.124 79.6509 33.836C79.6509 34.548 79.5429 35.176 79.3269 35.72C79.1189 36.264 78.8349 36.72 78.4749 37.088C78.1149 37.448 77.6949 37.72 77.2149 37.904C76.7429 38.088 76.2389 38.18 75.7029 38.18C75.1589 38.18 74.6429 38.088 74.1549 37.904C73.6749 37.72 73.2509 37.448 72.8829 37.088C72.5229 36.72 72.2349 36.264 72.0189 35.72C71.8109 35.176 71.7069 34.548 71.7069 33.836ZM72.9309 33.836C72.9309 34.34 72.9949 34.8 73.1229 35.216C73.2509 35.624 73.4309 35.972 73.6629 36.26C73.9029 36.548 74.1909 36.772 74.5269 36.932C74.8709 37.084 75.2549 37.16 75.6789 37.16C76.1029 37.16 76.4829 37.084 76.8189 36.932C77.1549 36.772 77.4389 36.548 77.6709 36.26C77.9109 35.972 78.0949 35.624 78.2229 35.216C78.3509 34.8 78.4149 34.34 78.4149 33.836C78.4149 33.332 78.3509 32.876 78.2229 32.468C78.0949 32.052 77.9109 31.7 77.6709 31.412C77.4389 31.124 77.1549 30.904 76.8189 30.752C76.4829 30.592 76.1029 30.512 75.6789 30.512C75.2549 30.512 74.8709 30.592 74.5269 30.752C74.1909 30.904 73.9029 31.124 73.6629 31.412C73.4309 31.7 73.2509 32.052 73.1229 32.468C72.9949 32.876 72.9309 33.332 72.9309 33.836Z" fill="white"/>
<path d="M1.6 21V7.14H10.88V9.76H4.72V12.66H10.2V15.28H4.72V21H1.6ZM13.0844 7.14H16.2044V21H13.0844V7.14ZM29.6925 7.14V9.8H25.5125V21H22.3925V9.8H18.2125V7.14H29.6925ZM40.9977 21C40.1043 19.4133 39.1377 17.8467 38.0977 16.3C37.0577 14.7533 35.951 13.2933 34.7777 11.92V21H31.6977V7.14H34.2377C34.6777 7.58 35.1643 8.12 35.6977 8.76C36.231 9.4 36.771 10.0867 37.3177 10.82C37.8777 11.54 38.431 12.2933 38.9777 13.08C39.5243 13.8533 40.0377 14.6 40.5177 15.32V7.14H43.6177V21H40.9977ZM46.8148 21V7.14H56.1748V9.76H49.9348V12.48H55.4748V15.04H49.9348V18.38H56.6348V21H46.8148ZM62.7238 18.62C63.1638 18.62 63.5238 18.5867 63.8038 18.52C64.0971 18.44 64.3304 18.34 64.5038 18.22C64.6771 18.0867 64.7971 17.9333 64.8638 17.76C64.9304 17.5867 64.9638 17.3933 64.9638 17.18C64.9638 16.7267 64.7504 16.3533 64.3238 16.06C63.8971 15.7533 63.1638 15.4267 62.1238 15.08C61.6704 14.92 61.2171 14.74 60.7638 14.54C60.3104 14.3267 59.9038 14.0667 59.5438 13.76C59.1838 13.44 58.8904 13.06 58.6637 12.62C58.4371 12.1667 58.3238 11.62 58.3238 10.98C58.3238 10.34 58.4438 9.76667 58.6838 9.26C58.9238 8.74 59.2638 8.3 59.7038 7.94C60.1438 7.58 60.6771 7.30667 61.3038 7.12C61.9304 6.92 62.6371 6.82 63.4238 6.82C64.3571 6.82 65.1638 6.92 65.8438 7.12C66.5238 7.32 67.0838 7.54 67.5238 7.78L66.6238 10.24C66.2371 10.04 65.8038 9.86667 65.3238 9.72C64.8571 9.56 64.2904 9.48 63.6238 9.48C62.8771 9.48 62.3371 9.58667 62.0038 9.8C61.6838 10 61.5238 10.3133 61.5238 10.74C61.5238 10.9933 61.5838 11.2067 61.7038 11.38C61.8238 11.5533 61.9904 11.7133 62.2038 11.86C62.4304 11.9933 62.6838 12.12 62.9638 12.24C63.2571 12.3467 63.5771 12.46 63.9238 12.58C64.6438 12.8467 65.2704 13.1133 65.8038 13.38C66.3371 13.6333 66.7771 13.9333 67.1238 14.28C67.4838 14.6267 67.7504 15.0333 67.9238 15.5C68.0971 15.9667 68.1838 16.5333 68.1838 17.2C68.1838 18.4933 67.7304 19.5 66.8238 20.22C65.9171 20.9267 64.5504 21.28 62.7238 21.28C62.1104 21.28 61.5571 21.24 61.0638 21.16C60.5704 21.0933 60.1304 21.0067 59.7438 20.9C59.3704 20.7933 59.0438 20.68 58.7638 20.56C58.4971 20.44 58.2704 20.3267 58.0838 20.22L58.9638 17.74C59.3771 17.9667 59.8838 18.1733 60.4838 18.36C61.0971 18.5333 61.8438 18.62 62.7238 18.62ZM74.3644 18.62C74.8044 18.62 75.1644 18.5867 75.4444 18.52C75.7377 18.44 75.971 18.34 76.1444 18.22C76.3177 18.0867 76.4377 17.9333 76.5044 17.76C76.571 17.5867 76.6044 17.3933 76.6044 17.18C76.6044 16.7267 76.391 16.3533 75.9644 16.06C75.5377 15.7533 74.8044 15.4267 73.7644 15.08C73.311 14.92 72.8577 14.74 72.4044 14.54C71.951 14.3267 71.5444 14.0667 71.1844 13.76C70.8244 13.44 70.531 13.06 70.3044 12.62C70.0777 12.1667 69.9644 11.62 69.9644 10.98C69.9644 10.34 70.0844 9.76667 70.3244 9.26C70.5644 8.74 70.9044 8.3 71.3444 7.94C71.7844 7.58 72.3177 7.30667 72.9444 7.12C73.571 6.92 74.2777 6.82 75.0644 6.82C75.9977 6.82 76.8044 6.92 77.4844 7.12C78.1644 7.32 78.7244 7.54 79.1644 7.78L78.2644 10.24C77.8777 10.04 77.4444 9.86667 76.9644 9.72C76.4977 9.56 75.931 9.48 75.2644 9.48C74.5177 9.48 73.9777 9.58667 73.6444 9.8C73.3244 10 73.1644 10.3133 73.1644 10.74C73.1644 10.9933 73.2244 11.2067 73.3444 11.38C73.4644 11.5533 73.631 11.7133 73.8444 11.86C74.071 11.9933 74.3244 12.12 74.6044 12.24C74.8977 12.3467 75.2177 12.46 75.5644 12.58C76.2844 12.8467 76.911 13.1133 77.4444 13.38C77.9777 13.6333 78.4177 13.9333 78.7644 14.28C79.1244 14.6267 79.391 15.0333 79.5644 15.5C79.7377 15.9667 79.8244 16.5333 79.8244 17.2C79.8244 18.4933 79.371 19.5 78.4644 20.22C77.5577 20.9267 76.191 21.28 74.3644 21.28C73.751 21.28 73.1977 21.24 72.7044 21.16C72.211 21.0933 71.771 21.0067 71.3844 20.9C71.011 20.7933 70.6844 20.68 70.4044 20.56C70.1377 20.44 69.911 20.3267 69.7244 20.22L70.6044 17.74C71.0177 17.9667 71.5244 18.1733 72.1244 18.36C72.7377 18.5333 73.4844 18.62 74.3644 18.62Z" fill="white"/>
</svg>
